HIERARCHY
ROOT Hips
{
	OFFSET 0.000000 89.005402 0.000000
	CHANNELS 6 Xposition Yposition Zposition Xrotation Yrotation Zrotation
	JOINT Spine
	{
		OFFSET 0.116900 10.681000 0.373400
		CHANNELS 3 Xrotation Yrotation Zrotation
		JOINT Spine1
		{
			OFFSET 0.000000 13.840401 0.053500
			CHANNELS 3 Xrotation Yrotation Zrotation
			JOINT Spine2
			{
				OFFSET 0.000000 14.712700 -0.366200
				CHANNELS 3 Xrotation Yrotation Zrotation
				JOINT Neck
				{
					OFFSET 0.000000 35.415497 -3.314200
					CHANNELS 3 Xrotation Yrotation Zrotation
					JOINT Head
					{
						OFFSET 0.000000 16.899200 1.218300
						CHANNELS 3 Xrotation Yrotation Zrotation
						JOINT HeadTop_End
						{
							OFFSET 0.000000 22.206207 2.192500
							CHANNELS 3 Xrotation Yrotation Zrotation
							End Site
							{
								OFFSET 0.000000 22.314178 0.000000
							}
						}
					}
				}
				JOINT LeftShoulder
				{
					OFFSET 12.896400 26.716293 -4.548400
					CHANNELS 3 Xrotation Yrotation Zrotation
					JOINT LeftArm
					{
						OFFSET 19.027000 -4.857010 -1.718400
						CHANNELS 3 Xrotation Yrotation Zrotation
						JOINT LeftForeArm
						{
							OFFSET 24.179897 0.000000 0.000000
							CHANNELS 3 Xrotation Yrotation Zrotation
							JOINT LeftHand
							{
								OFFSET 27.156403 0.000000 0.000000
								CHANNELS 3 Xrotation Yrotation Zrotation
								JOINT LeftHandIndex1
								{
									OFFSET 16.441200 0.000000 0.000000
									CHANNELS 3 Xrotation Yrotation Zrotation
									JOINT LeftHandIndex2
									{
										OFFSET 4.821899 0.000000 0.000000
										CHANNELS 3 Xrotation Yrotation Zrotation
										JOINT LeftHandIndex3
										{
											OFFSET 6.386497 0.000000 0.000000
											CHANNELS 3 Xrotation Yrotation Zrotation
											JOINT LeftHandIndex4
											{
												OFFSET 5.188988 0.000000 0.000000
												CHANNELS 3 Xrotation Yrotation Zrotation
												End Site
												{
													OFFSET -0.178703 5.185913 0.000177
												}
											}
										}
									}
								}
								JOINT LeftHandThumb1
								{
									OFFSET 6.534897 -5.032593 5.900300
									CHANNELS 3 Xrotation Yrotation Zrotation
									JOINT LeftHandThumb2
									{
										OFFSET 3.818176 -2.204422 2.204423
										CHANNELS 3 Xrotation Yrotation Zrotation
										JOINT LeftHandThumb3
										{
											OFFSET 3.252098 -1.877594 1.877601
											CHANNELS 3 Xrotation Yrotation Zrotation
											JOINT LeftHandThumb4
											{
												OFFSET 5.251778 -3.032120 3.032117
												CHANNELS 3 Xrotation Yrotation Zrotation
												End Site
												{
													OFFSET 0.000023 6.780014 0.000000
												}
											}
										}
									}
								}
							}
						}
					}
				}
				JOINT RightShoulder
				{
					OFFSET -12.896300 26.716293 -4.548400
					CHANNELS 3 Xrotation Yrotation Zrotation
					JOINT RightArm
					{
						OFFSET -19.027000 -4.857010 -1.718400
						CHANNELS 3 Xrotation Yrotation Zrotation
						JOINT RightForeArm
						{
							OFFSET -24.179897 0.000000 0.000000
							CHANNELS 3 Xrotation Yrotation Zrotation
							JOINT RightHand
							{
								OFFSET -27.156403 0.000000 0.000000
								CHANNELS 3 Xrotation Yrotation Zrotation
								JOINT RightHandThumb1
								{
									OFFSET -6.591202 -4.852203 5.988100
									CHANNELS 3 Xrotation Yrotation Zrotation
									JOINT RightHandThumb2
									{
										OFFSET -3.818176 -2.204422 2.204423
										CHANNELS 3 Xrotation Yrotation Zrotation
										JOINT RightHandThumb3
										{
											OFFSET -3.252098 -1.877594 1.877601
											CHANNELS 3 Xrotation Yrotation Zrotation
											JOINT RightHandThumb4
											{
												OFFSET -5.251778 -3.032120 3.032117
												CHANNELS 3 Xrotation Yrotation Zrotation
												End Site
												{
													OFFSET -0.000023 6.780014 0.000000
												}
											}
										}
									}
								}
								JOINT RightHandIndex1
								{
									OFFSET -16.029404 0.000000 0.000000
									CHANNELS 3 Xrotation Yrotation Zrotation
									JOINT RightHandIndex2
									{
										OFFSET -5.213303 0.000000 0.000000
										CHANNELS 3 Xrotation Yrotation Zrotation
										JOINT RightHandIndex3
										{
											OFFSET -6.386528 0.000000 0.000000
											CHANNELS 3 Xrotation Yrotation Zrotation
											JOINT RightHandIndex4
											{
												OFFSET -5.189026 0.000000 0.000000
												CHANNELS 3 Xrotation Yrotation Zrotation
												End Site
												{
													OFFSET 0.236702 5.183624 0.001972
												}
											}
										}
									}
								}
							}
						}
					}
				}
			}
		}
	}
	JOINT LeftUpLeg
	{
		OFFSET 14.073000 -7.904099 -1.463000
		CHANNELS 3 Xrotation Yrotation Zrotation
		JOINT LeftLeg
		{
			OFFSET -0.109806 -34.073280 4.093200
			CHANNELS 3 Xrotation Yrotation Zrotation
			JOINT LeftFoot
			{
				OFFSET 0.109806 -29.899420 -6.319000
				CHANNELS 3 Xrotation Yrotation Zrotation
				JOINT LeftToeBase
				{
					OFFSET 1.551100 -14.988700 20.535801
					CHANNELS 3 Xrotation Yrotation Zrotation
					JOINT LeftToe_End
					{
						OFFSET 0.221200 0.570800 13.248301
						CHANNELS 3 Xrotation Yrotation Zrotation
						End Site
						{
							OFFSET 0.000000 13.262435 0.000000
						}
					}
				}
			}
		}
	}
	JOINT RightUpLeg
	{
		OFFSET -13.839300 -7.904099 -1.463000
		CHANNELS 3 Xrotation Yrotation Zrotation
		JOINT RightLeg
		{
			OFFSET 0.109694 -34.073219 4.093300
			CHANNELS 3 Xrotation Yrotation Zrotation
			JOINT RightFoot
			{
				OFFSET -0.109694 -29.899384 -6.319200
				CHANNELS 3 Xrotation Yrotation Zrotation
				JOINT RightToeBase
				{
					OFFSET -1.551100 -14.988700 20.535801
					CHANNELS 3 Xrotation Yrotation Zrotation
					JOINT RightToe_End
					{
						OFFSET -0.221200 0.570900 13.248299
						CHANNELS 3 Xrotation Yrotation Zrotation
						End Site
						{
							OFFSET 0.000000 13.262440 0.000000
						}
					}
				}
			}
		}
	}
}
MOTION
Frames: 4
Frame Time: 0.033333
0.001777 13.042992 1.950737 -86.447252 -3.194846 -0.480001 9.853978 0.973290 -0.449503 8.087689 -1.258603 -0.732439 8.119509 -1.186475 -0.407207 13.334799 -1.600552 -0.295079 20.112600 -8.663514 0.571334 0.000000 -0.000000 0.000000 0.538033 -15.176965 -7.227737 -37.646083 -35.409432 -43.194444 0.000003 -26.292712 0.000001 -55.784238 27.485972 -58.031514 0.020423 -0.966554 -7.590925 0.267911 1.752969 -17.376524 0.057682 0.821036 -8.038820 0.000003 -0.000000 0.000000 -0.666107 2.158564 4.837366 11.859626 25.414857 17.056657 -13.811961 3.541894 9.030664 -0.000001 -0.000000 0.000001 1.252052 21.904304 5.689374 -29.668586 39.965042 45.556986 0.000023 43.787926 -0.000021 -60.560337 -3.355755 32.188366 -1.664521 -0.169103 -4.216933 12.708022 -29.838173 -16.127714 -15.551970 -3.555842 -12.703319 0.000000 -0.000000 0.000000 0.037633 1.264483 6.828369 0.213854 -1.396496 17.412934 0.046097 -0.654327 8.059122 -0.000001 0.000000 -0.000000 -32.754268 6.178275 5.713011 40.043818 -9.748394 -1.434759 54.431707 -14.281333 -11.115146 8.905694 -0.000004 0.000001 0.000001 -0.000000 -0.000000 -35.740987 -6.358044 -5.974936 40.115169 12.150132 3.113085 44.360166 7.130294 11.363498 5.662647 0.000003 -0.000000 -0.000001 -0.000000 -0.000000 
0.182851 13.057617 2.072372 -86.187309 -2.196744 -0.864535 10.011856 1.550233 -0.545095 8.229756 -0.949425 -0.864154 8.265920 -0.883706 -0.513101 13.351765 -1.662450 -0.063725 20.018458 -8.891730 1.144266 -0.000001 0.000000 -0.000000 0.591589 -14.626375 -6.500382 -37.127792 -35.346458 -41.807018 0.000003 -26.144089 0.000003 -54.498598 27.909551 -59.166404 0.020422 -0.966552 -7.590927 0.267908 1.752971 -17.376524 0.057685 0.821036 -8.038819 -0.000001 -0.000000 0.000000 -0.666107 2.158567 4.837363 11.859625 25.414861 17.056654 -13.811960 3.541891 9.030664 -0.000002 -0.000000 -0.000002 1.272811 22.694176 5.710357 -30.273953 40.145349 47.042713 -0.000004 43.859565 0.000005 -62.252229 -2.526996 30.794003 -1.664523 -0.169105 -4.216931 12.708033 -29.838177 -16.127714 -15.551963 -3.555835 -12.703320 -0.000000 0.000001 -0.000001 0.037628 1.264480 6.828368 0.213863 -1.396494 17.412934 0.046091 -0.654327 8.059120 -0.000001 -0.000000 0.000001 -33.236930 5.318229 5.099483 40.149143 -9.695171 -0.904103 55.138748 -14.453360 -11.062035 8.907718 -0.000010 0.000004 0.000000 0.000003 0.000000 -35.908138 -7.106485 -6.517584 40.139167 12.311832 3.381075 44.162473 6.722770 11.824494 5.760331 0.000003 -0.000002 0.000001 0.000000 0.000001 
0.398479 13.073792 2.233017 -85.828902 -1.015028 -1.254617 10.185916 2.172797 -0.568582 8.379569 -0.574543 -0.964576 8.419032 -0.519160 -0.594173 13.334477 -1.738223 0.234057 20.042555 -9.101050 1.652525 -0.000001 -0.000000 0.000000 0.658602 -14.416709 -5.754977 -36.882789 -35.157729 -40.752385 -0.000001 -25.929714 -0.000009 -53.919617 28.922880 -59.368161 0.020419 -0.966551 -7.590926 0.267909 1.752970 -17.376522 0.057685 0.821037 -8.038819 -0.000001 -0.000000 -0.000000 -0.666107 2.158566 4.837360 11.859624 25.414862 17.056661 -13.811959 3.541893 9.030661 0.000000 -0.000000 -0.000002 1.283089 23.393437 5.760315 -30.591376 40.390867 47.969040 0.000001 43.783951 -0.000005 -64.028044 -1.423590 29.469582 -1.664521 -0.169100 -4.216942 12.708031 -29.838173 -16.127719 -15.551967 -3.555838 -12.703323 -0.000002 -0.000000 -0.000001 0.037628 1.264482 6.828368 0.213862 -1.396496 17.412932 0.046089 -0.654327 8.059123 0.000000 -0.000000 0.000000 -33.864860 4.356617 4.332085 40.279466 -9.638422 -0.358417 55.896356 -14.723578 -11.009664 8.893631 0.000005 0.000003 0.000001 0.000000 0.000000 -36.215538 -8.093048 -7.381480 40.126993 12.576111 3.724811 44.091395 6.196731 12.453181 5.903349 -0.000000 0.000004 -0.000001 -0.000001 -0.000001 
0.634422 13.098244 2.415642 -85.377979 0.234900 -1.640810 10.370248 2.829635 -0.504241 8.541716 -0.173801 -1.036742 8.585561 -0.135466 -0.648559 13.338510 -1.817634 0.458401 20.048835 -9.417403 2.187283 0.000001 0.000000 0.000000 0.703510 -14.396353 -5.280906 -36.888072 -34.899671 -39.816642 -0.000002 -25.801960 0.000002 -53.084811 29.778713 -59.551135 0.020420 -0.966553 -7.590928 0.267910 1.752972 -17.376524 0.057682 0.821036 -8.038820 0.000001 -0.000000 -0.000000 -0.666105 2.158564 4.837366 11.859625 25.414861 17.056656 -13.811957 3.541893 9.030664 0.000000 0.000001 -0.000000 1.322700 24.056949 5.646530 -31.018331 40.461423 48.854690 -0.000000 43.598481 -0.000008 -65.852955 -0.390314 28.700790 -1.664520 -0.169102 -4.216935 12.708024 -29.838173 -16.127718 -15.551968 -3.555839 -12.703320 0.000000 -0.000002 -0.000001 0.037631 1.264483 6.828370 0.213856 -1.396493 17.412934 0.046100 -0.654326 8.059121 -0.000002 -0.000000 0.000001 -34.550164 3.403638 3.500504 40.323159 -9.570099 0.106058 56.752148 -15.159842 -10.918554 8.902568 -0.000002 -0.000000 -0.000000 -0.000001 0.000000 -36.770371 -9.138425 -8.471854 40.309857 12.919940 4.034333 43.876056 5.357215 13.239693 5.947688 -0.000001 0.000002 -0.000000 0.000000 0.000001 
